<svg xmlns="http://www.w3.org/2000/svg" viewBox="0 0 612 648"><defs><style>.cls-1,.cls-20{fill:#e6e7e8;}.cls-2{fill:#a7a9ac;}.cls-17,.cls-24,.cls-26,.cls-29,.cls-3,.cls-31,.cls-38,.cls-4,.cls-40,.cls-47,.cls-5,.cls-50,.cls-58,.cls-59,.cls-60,.cls-66,.cls-67,.cls-71,.cls-72{fill:none;}.cls-17,.cls-3,.cls-4,.cls-5{stroke:#808285;}.cls-17,.cls-20,.cls-24,.cls-26,.cls-28,.cls-29,.cls-3,.cls-31,.cls-38,.cls-4,.cls-40,.cls-46,.cls-47,.cls-5,.cls-50,.cls-58,.cls-59,.cls-60,.cls-66,.cls-67,.cls-71,.cls-72{stroke-miterlimit:10;}.cls-17,.cls-3,.cls-38,.cls-50,.cls-58,.cls-66,.cls-71{stroke-width:2px;}.cls-5{stroke-dasharray:5;}.cls-10,.cls-11,.cls-12,.cls-13,.cls-16,.cls-6,.cls-7{font-size:12px;}.cls-19,.cls-34,.cls-39,.cls-44,.cls-6,.cls-64,.cls-65,.cls-68{fill:#231f20;}.cls-10,.cls-11,.cls-12,.cls-13,.cls-21,.cls-23,.cls-25,.cls-27,.cls-30,.cls-32,.cls-34,.cls-41,.cls-51,.cls-52,.cls-55,.cls-56,.cls-57,.cls-6,.cls-61,.cls-64,.cls-65,.cls-68,.cls-7,.cls-70,.cls-73{font-family:ArialMT, Arial;}.cls-41,.cls-52,.cls-61,.cls-7,.cls-74{fill:#d82a2b;}.cls-8{letter-spacing:-0.074em;}.cls-9{letter-spacing:-0.018em;}.cls-10,.cls-30,.cls-55,.cls-70,.cls-75{fill:#f57e2a;}.cls-11,.cls-32,.cls-56,.cls-73,.cls-76{fill:#22a049;}.cls-12,.cls-27,.cls-57,.cls-77{fill:#9568ac;}.cls-13,.cls-25{fill:#1778b3;}.cls-14{letter-spacing:-0.055em;}.cls-15{font-size:8px;}.cls-15,.cls-16,.cls-18,.cls-23,.cls-28,.cls-43,.cls-46{fill:#fff;}.cls-15,.cls-16,.cls-19,.cls-43,.cls-44,.cls-48{font-family:Arial-BoldMT, Arial;font-weight:700;}.cls-17{stroke-dasharray:11.641 11.641;}.cls-19,.cls-43,.cls-48{font-size:15.416px;}.cls-20,.cls-28,.cls-38,.cls-46,.cls-47,.cls-60{stroke:#231f20;}.cls-21,.cls-23,.cls-34{font-size:7.708px;}.cls-21{font-weight:400;}.cls-22{fill:#e03036;}.cls-24{stroke:#1778b3;}.cls-25,.cls-27,.cls-30,.cls-32,.cls-41,.cls-51{font-size:5.781px;}.cls-26{stroke:#9568ac;}.cls-29,.cls-66,.cls-67{stroke:#f57e2a;}.cls-31,.cls-71,.cls-72{stroke:#22a049;}.cls-33{fill:#adc7e5;}.cls-35{letter-spacing:-0.055em;}.cls-36{fill:#c8c7c6;}.cls-37{fill:#7f7f7f;}.cls-40,.cls-58,.cls-59{stroke:#d82a2b;}.cls-42{fill:#0ebecd;}.cls-44{font-size:24px;}.cls-45{letter-spacing:-0.037em;}.cls-46{stroke-width:0.5px;}.cls-48,.cls-49{fill:#808285;}.cls-50{stroke:#58595b;}.cls-51{fill:#58595b;}.cls-52,.cls-55,.cls-56,.cls-57{font-size:6.605px;}.cls-53{letter-spacing:-0.074em;}.cls-54{letter-spacing:-0.018em;}.cls-59,.cls-60,.cls-67,.cls-72{stroke-width:0.75px;}.cls-61,.cls-64,.cls-65,.cls-68,.cls-70,.cls-73{font-size:5.14px;}.cls-62{letter-spacing:-0.074em;}.cls-63{letter-spacing:-0.018em;}.cls-65{letter-spacing:-0.015em;}.cls-68{letter-spacing:0.01em;}.cls-69{letter-spacing:-0.055em;}</style></defs><g id="Overhang_list" data-name="Overhang list"><rect class="cls-1" x="317.644" y="200.833" width="279.603" height="117.208"/><polygon class="cls-1" points="307.41 630.478 226.882 630.478 78.415 630.478 78.415 582.787 226.882 582.787 307.41 582.787 307.41 630.478"/><rect class="cls-2" x="22.712" y="45.687" width="574.683" height="33.731"/><rect class="cls-3" x="22.712" y="45.687" width="574.535" height="272.354"/><line class="cls-3" x1="169.696" y1="318.04" x2="169.696" y2="45.687"/><line class="cls-3" x1="316.68" y1="318.04" x2="316.68" y2="45.687"/><rect class="cls-3" x="22.712" y="45.687" width="574.535" height="33.731"/><line class="cls-4" x1="78.415" y1="630.478" x2="78.415" y2="558.942"/><line class="cls-4" x1="27.867" y1="535.096" x2="307.41" y2="535.096"/><line class="cls-4" x1="27.867" y1="558.942" x2="307.41" y2="558.942"/><line class="cls-4" x1="78.415" y1="582.787" x2="307.41" y2="582.787"/><line class="cls-5" x1="149.606" y1="606.633" x2="307.41" y2="606.633"/><text class="cls-6" transform="translate(35.896 528.219)">Promoter</text><text class="cls-6" transform="translate(163.835 528.219)">pPV1</text><text class="cls-6" transform="translate(163.835 551.815)">pPV2</text><text class="cls-6" transform="translate(163.835 575.41)">pPV3</text><text class="cls-6" transform="translate(163.835 599.006)">pPV3a</text><text class="cls-6" transform="translate(163.835 622.602)">pPV3b</text><text class="cls-7" transform="translate(216.285 528.219)"><tspan class="cls-8">T</tspan><tspan x="6.439" y="0">AC</tspan><tspan class="cls-9" x="23.109" y="0">T</tspan></text><text class="cls-10" transform="translate(266.314 528.219)">A<tspan class="cls-8" x="8.004" y="0">A</tspan><tspan x="15.117" y="0">TG</tspan></text><text class="cls-10" transform="translate(215.515 551.815)">A<tspan class="cls-8" x="8.004" y="0">A</tspan><tspan x="15.117" y="0">TG</tspan></text><text class="cls-11" transform="translate(265.526 551.815)">CAAC</text><text class="cls-11" transform="translate(214.727 575.41)">CAAC</text><text class="cls-12" transform="translate(265.306 575.41)">CGC<tspan class="cls-9" x="26.666" y="0">T</tspan></text><text class="cls-11" transform="translate(214.727 599.006)">CAAC</text><text class="cls-13" transform="translate(264.855 599.006)">AGG<tspan class="cls-14" x="26.672" y="0">A</tspan></text><text class="cls-13" transform="translate(214.057 622.601)">AGG<tspan class="cls-14" x="26.672" y="0">A</tspan></text><text class="cls-12" transform="translate(265.306 622.601)">CGC<tspan class="cls-9" x="26.666" y="0">T</tspan></text><text class="cls-6" transform="translate(35.896 551.842)">GOI</text><text class="cls-6" transform="translate(35.896 599.006)">Poly<tspan class="cls-14" x="23.344" y="0">A</tspan></text><text class="cls-6" transform="translate(87.688 609.583)">+ WPRE</text><text class="cls-6" transform="translate(84.173 574.782)">Only Poly<tspan class="cls-14" x="51.352" y="0">A</tspan></text><polygon class="cls-2" points="307.41 511.251 209.107 511.251 27.867 511.251 27.867 487.405 209.107 487.405 307.41 487.405 307.41 511.251"/><line class="cls-4" x1="256.767" y1="630.478" x2="256.767" y2="487.405"/><line class="cls-4" x1="307.41" y1="630.478" x2="307.41" y2="487.405"/><line class="cls-4" x1="149.606" y1="630.478" x2="149.606" y2="487.405"/><text class="cls-15" transform="translate(222.947 497.346)">BsaI<tspan x="-13.781" y="9.6">5</tspan><tspan class="cls-14" x="-9.332" y="9.6">’</tspan><tspan x="-7.551" y="9.6" xml:space="preserve"> overhang</tspan></text><text class="cls-16" transform="translate(70.541 503.108)">Parts</text><text class="cls-16" transform="translate(162.171 503.108)">Name</text><text class="cls-15" transform="translate(273.746 497.346)">BsaI<tspan x="-13.781" y="9.6">3</tspan><tspan class="cls-14" x="-9.332" y="9.6">’</tspan><tspan x="-7.551" y="9.6" xml:space="preserve"> overhang</tspan></text><line class="cls-4" x1="27.867" y1="511.251" x2="307.41" y2="511.251"/><line class="cls-4" x1="206.123" y1="630.478" x2="206.123" y2="487.405"/><line class="cls-3" x1="317.644" y1="200.833" x2="323.644" y2="200.833"/><line class="cls-17" x1="335.285" y1="200.833" x2="585.574" y2="200.833"/><line class="cls-3" x1="591.395" y1="200.833" x2="597.395" y2="200.833"/><rect class="cls-18" x="440.72" y="189.155" width="33.599" height="23.356"/><text class="cls-19" transform="translate(445.957 206.851)">OR</text><polygon class="cls-4" points="307.522 630.478 209.179 630.478 27.867 630.478 27.867 487.405 209.179 487.405 307.522 487.405 307.522 630.478"/></g><g id="Part_library" data-name="Part library"><rect class="cls-20" x="464.14" y="237.972" width="118.885" height="68.298" rx="31.908"/><text class="cls-19" transform="translate(499.597 270.739)">pPV3b<tspan class="cls-21"><tspan x="9.856" y="17.343">(WPRE)</tspan></tspan></text><g id="Amp"><rect class="cls-22" x="506.342" y="300.753" width="34.48" height="11.034"/><text class="cls-23" transform="translate(515.663 308.325)">Amp</text></g><polyline class="cls-24" points="494.713 234.891 513.072 234.891 508.411 231.781"/><text class="cls-25" transform="translate(494.713 233.335)">BsaI</text><polyline class="cls-26" points="552.922 234.891 534.563 234.891 539.224 231.781"/><text class="cls-27" transform="translate(541.354 233.335)">BsaI</text><rect class="cls-28" x="185.003" y="174.946" width="118.885" height="68.298" rx="31.908"/><text class="cls-19" transform="translate(225.167 207.713)">pPV2<tspan class="cls-21"><tspan x="9.645" y="17.343">(GOI)</tspan></tspan></text><g id="Amp-2" data-name="Amp"><rect class="cls-22" x="227.205" y="237.727" width="34.48" height="11.034"/><text class="cls-23" transform="translate(236.527 245.3)">Amp</text></g><polyline class="cls-29" points="205.934 172.03 224.293 172.03 219.631 168.92"/><text class="cls-30" transform="translate(205.933 170.475)">BsaI</text><polyline class="cls-31" points="283.427 172.03 265.068 172.03 269.729 168.92"/><text class="cls-32" transform="translate(271.859 170.475)">BsaI</text><g id="Amp-3" data-name="Amp"><rect class="cls-33" x="227.205" y="169.429" width="34.48" height="11.034"/><text class="cls-23" transform="translate(237.385 177.001)">GOI</text></g><rect class="cls-20" x="332.171" y="237.972" width="118.885" height="68.298" rx="31.908"/><text class="cls-19" transform="translate(368.049 270.739)">pPV3a<tspan class="cls-21"><tspan x="10.93" y="17.343">(PolyA)</tspan></tspan></text><g id="Amp-4" data-name="Amp"><rect class="cls-22" x="374.374" y="300.753" width="34.48" height="11.034"/><text class="cls-23" transform="translate(383.695 308.325)">Amp</text></g><polyline class="cls-31" points="361.781 234.891 380.14 234.891 375.479 231.781"/><text class="cls-32" transform="translate(361.78 233.335)">BsaI</text><polyline class="cls-24" points="421.917 234.891 403.558 234.891 408.22 231.781"/><text class="cls-25" transform="translate(410.349 233.335)">BsaI</text><g id="Amp-5" data-name="Amp"><text class="cls-34" transform="translate(381.538 227.496)">Poly<tspan class="cls-35" x="14.994" y="0">A</tspan></text></g><g id="Amp-6" data-name="Amp"><rect class="cls-36" x="389.105" y="231.895" width="5.016" height="11.666"/></g><rect class="cls-28" x="332.171" y="107.949" width="118.885" height="68.298" rx="31.908"/><text class="cls-19" transform="translate(372.336 140.717)">pPV3<tspan class="cls-21"><tspan x="6.643" y="17.343">(PolyA)</tspan></tspan></text><g id="Amp-7" data-name="Amp"><rect class="cls-22" x="374.374" y="170.73" width="34.48" height="11.034"/><text class="cls-23" transform="translate(383.695 178.303)">Amp</text></g><polyline class="cls-31" points="361.781 104.895 380.14 104.895 375.479 101.785"/><text class="cls-32" transform="translate(361.78 103.341)">BsaI</text><polyline class="cls-26" points="421.917 104.895 403.558 104.895 408.22 101.785"/><text class="cls-27" transform="translate(410.349 103.341)">BsaI</text><g id="Amp-8" data-name="Amp"><text class="cls-34" transform="translate(381.538 96.537)">Poly<tspan class="cls-35" x="14.994" y="0">A</tspan></text></g><g id="Amp-9" data-name="Amp"><rect class="cls-36" x="389.105" y="100.936" width="5.016" height="14.586"/></g><g id="Amp-10" data-name="Amp"><text class="cls-34" transform="translate(512.021 227.496)">WPRE</text></g><g id="Amp-11" data-name="Amp"><rect class="cls-37" x="521.074" y="231.895" width="5.016" height="11.666"/></g><rect class="cls-28" x="32.192" y="178.407" width="118.885" height="68.298" rx="31.908"/><text class="cls-19" transform="translate(72.356 211.174)">pPV1<tspan class="cls-21"><tspan x="-1.065" y="17.343">(Promoters)</tspan></tspan></text><g id="Amp-12" data-name="Amp"><rect class="cls-22" x="74.394" y="241.188" width="34.48" height="11.034"/><text class="cls-23" transform="translate(83.716 248.76)">Amp</text></g><polyline class="cls-18" points="88.521 178.407 88.521 161.48 108.874 161.48"/><polyline class="cls-38" points="88.521 178.407 88.521 161.48 104.568 161.48"/><polygon class="cls-39" points="103.693 164.472 108.874 161.48 103.693 158.489 103.693 164.472"/><polyline class="cls-18" points="493.559 355.108 493.559 338.181 513.912 338.181"/><polyline class="cls-38" points="493.56 355.108 493.56 338.181 509.607 338.181"/><polygon class="cls-39" points="508.731 341.173 513.912 338.181 508.731 335.19 508.731 341.173"/><polyline class="cls-40" points="53.123 175.326 71.482 175.326 66.82 172.216"/><polyline class="cls-29" points="130.616 175.326 112.257 175.326 116.918 172.216"/><text class="cls-30" transform="translate(119.048 173.771)">BsaI</text><text class="cls-41" transform="translate(53.122 173.771)">BsaI</text><rect class="cls-28" x="255.818" y="355.108" width="118.885" height="68.298" rx="31.908"/><g id="Amp-13" data-name="Amp"><rect class="cls-37" x="298.02" y="417.889" width="34.48" height="11.034"/><text class="cls-23" transform="translate(308.409 425.461)">Kan</text></g><polyline class="cls-40" points="289.28 352.027 270.921 352.027 275.582 348.917"/><polyline class="cls-26" points="340.704 352.027 359.063 352.027 354.402 348.917"/><text class="cls-27" transform="translate(340.704 350.472)">BsaI</text><text class="cls-41" transform="translate(277.713 350.472)">BsaI</text><text class="cls-19" transform="translate(281.425 384.683)">GG Entry<tspan class="cls-21"><tspan x="23.557" y="17.343">(BsaI)</tspan></tspan></text><text class="cls-19" transform="translate(242.398 395.869)">+</text><rect class="cls-42" x="292.55" y="349.591" width="45.422" height="11.034"/><text class="cls-23" transform="translate(296.412 357.163)">Chlor/ccdB</text><text class="cls-43" transform="translate(57.37 67.875)">Promoter</text><text class="cls-44" transform="translate(12.787 27.632)">Part library</text><text class="cls-44" transform="translate(12.787 467.181)">Overhang list</text><text class="cls-43" transform="translate(230.313 67.875)">GOI</text><text class="cls-43" transform="translate(400.848 67.875)">Poly<tspan class="cls-45" x="32.556" y="0">A</tspan><tspan x="43.116" y="0" xml:space="preserve"> +/- WPRE</tspan></text><rect class="cls-46" x="39.649" y="380.105" width="59.379" height="25.105" rx="10.986"/><g id="Amp-14" data-name="Amp"><rect class="cls-22" x="60.727" y="403.182" width="17.222" height="4.056"/></g><polyline class="cls-18" points="67.783 380.105 67.783 371.651 77.949 371.651"/><polyline class="cls-47" points="67.783 380.105 67.783 371.651 75.796 371.651"/><polygon class="cls-39" points="75.358 373.147 77.949 371.651 75.358 370.155 75.358 373.147"/><polyline class="cls-40" points="46.324 372.247 59.119 372.247 55.87 368.209"/><polyline class="cls-29" points="92.495 372.247 79.7 372.247 82.948 368.209"/><rect class="cls-46" x="107.147" y="380.105" width="59.379" height="25.105" rx="10.986"/><g id="Amp-15" data-name="Amp"><rect class="cls-22" x="128.225" y="403.182" width="17.222" height="4.056"/><rect class="cls-33" x="129.741" y="376.655" width="14.19" height="6.901"/></g><polyline class="cls-29" points="110.516 372.247 123.311 372.247 120.063 368.209"/><polyline class="cls-31" points="159.374 372.247 146.579 372.247 149.828 368.209"/><rect class="cls-46" x="174.314" y="380.105" width="59.379" height="25.105" rx="10.986"/><g id="Amp-16" data-name="Amp"><rect class="cls-22" x="195.393" y="403.182" width="17.222" height="4.056"/></g><polyline class="cls-31" points="181.264 372.247 194.059 372.247 190.811 368.209"/><polyline class="cls-26" points="223.481 372.247 210.686 372.247 213.935 368.209"/><rect class="cls-36" x="202.235" y="376.655" width="3.544" height="6.901"/><text class="cls-19" transform="translate(31.204 343.015)">e.g.</text><text class="cls-48" transform="translate(404.484 382.84)">BsaI</text><text class="cls-48" transform="translate(387.777 407.238)">T4 ligase</text><line class="cls-3" x1="386.278" y1="390.23" x2="448.076" y2="390.23"/><polygon class="cls-49" points="446.617 395.216 455.252 390.23 446.617 385.243 446.617 395.216"/><line class="cls-50" x1="264.461" y1="357.163" x2="272.344" y2="365.047"/><text class="cls-51" transform="translate(249.389 357.813)">attL1</text><line class="cls-50" x1="365.74" y1="357.163" x2="357.857" y2="365.047"/><text class="cls-51" transform="translate(367.727 357.813)">attL2</text><rect class="cls-28" x="464.112" y="355.108" width="118.885" height="68.298" rx="31.908"/><g id="Amp-17" data-name="Amp"><rect class="cls-37" x="506.314" y="417.889" width="34.48" height="11.034"/><text class="cls-23" transform="translate(516.702 425.461)">Kan</text></g><text class="cls-19" transform="translate(489.719 384.683)">GG Entry<tspan class="cls-21"><tspan x="11.987" y="17.343">(LR clonase)</tspan></tspan></text><rect class="cls-33" x="500.188" y="349.591" width="45.422" height="11.034"/><rect class="cls-36" x="550.274" y="349.591" width="5.12" height="11.034"/><line class="cls-50" x1="472.754" y1="357.163" x2="480.638" y2="365.047"/><text class="cls-51" transform="translate(457.683 357.813)">attL1</text><line class="cls-50" x1="574.034" y1="357.163" x2="566.151" y2="365.047"/><text class="cls-51" transform="translate(576.021 357.813)">attL2</text><polyline class="cls-40" points="64.71 386.693 55.534 386.693 55.534 374.491 46.204 374.491"/><rect class="cls-18" x="46.204" y="376.034" width="18.506" height="8.529"/><text class="cls-52" transform="translate(47.139 382.84)"><tspan class="cls-53">T</tspan><tspan x="3.544" y="0">AC</tspan><tspan class="cls-54" x="12.72" y="0">T</tspan></text><polyline class="cls-29" points="93.021 386.693 83.845 386.693 83.845 374.491 74.515 374.491"/><rect class="cls-18" x="74.515" y="376.034" width="18.506" height="8.529"/><text class="cls-55" transform="translate(75.02 382.84)">A<tspan class="cls-53" x="4.406" y="0">A</tspan><tspan x="8.321" y="0">TG</tspan></text><polyline class="cls-29" points="129.022 386.693 119.846 386.693 119.846 374.491 110.516 374.491"/><rect class="cls-18" x="110.516" y="376.034" width="18.506" height="8.529"/><text class="cls-55" transform="translate(111.022 382.84)">A<tspan class="cls-53" x="4.406" y="0">A</tspan><tspan x="8.321" y="0">TG</tspan></text><polyline class="cls-31" points="163.953 386.693 154.777 386.693 154.777 374.491 145.447 374.491"/><rect class="cls-18" x="145.447" y="376.034" width="18.506" height="8.529"/><text class="cls-56" transform="translate(145.524 382.84)">CAAC</text><polyline class="cls-31" points="199.77 386.693 190.595 386.693 190.595 374.491 181.264 374.491"/><rect class="cls-18" x="181.264" y="376.034" width="18.506" height="8.529"/><text class="cls-56" transform="translate(181.341 382.84)">CAAC</text><polyline class="cls-26" points="228.091 386.693 218.915 386.693 218.915 374.491 209.584 374.491"/><rect class="cls-18" x="209.584" y="376.034" width="18.506" height="8.529"/><text class="cls-57" transform="translate(209.54 382.84)">CGC<tspan class="cls-54" x="14.678" y="0">T</tspan></text><polyline class="cls-58" points="30.882 107.848 58.779 107.848 54.536 102.992"/><polyline class="cls-59" points="30.882 126.123 78.243 126.123 78.243 119.478 61.681 119.478 61.681 111.818 30.882 111.818"/><polygon class="cls-60" points="110.084 126.123 79.285 126.123 79.285 118.381 62.723 118.381 62.723 111.818 111.372 111.818 111.372 119.417 127.914 119.417 127.914 126.123 110.084 126.123"/><text class="cls-61" transform="translate(63.614 116.834)"><tspan class="cls-62">T</tspan><tspan x="2.758" y="0">AC</tspan><tspan class="cls-63" x="9.898" y="0">T</tspan></text><text class="cls-64" transform="translate(31.454 116.834)"><tspan xml:space="preserve">GGTCTC  N</tspan></text><text class="cls-65" transform="translate(31.571 124.357)"><tspan xml:space="preserve">CCAGAG  N</tspan></text><polyline class="cls-66" points="159.779 107.848 129.92 107.848 134.163 102.992"/><polyline class="cls-67" points="159.779 111.818 112.418 111.818 112.418 118.463 128.98 118.463 128.98 126.123 159.779 126.123"/><text class="cls-64" transform="translate(130.565 116.834)">N GAGACC</text><text class="cls-68" transform="translate(130.682 124.357)">N CTCTGG</text><text class="cls-64" transform="translate(63.279 124.357)"><tspan class="cls-62">A</tspan><tspan x="3.047" y="0">TG</tspan><tspan class="cls-69" x="10.185" y="0">A</tspan></text><text class="cls-64" transform="translate(114.259 116.834)">A<tspan class="cls-62" x="3.428" y="0">A</tspan><tspan x="6.475" y="0">TG</tspan></text><text class="cls-70" transform="translate(113.925 124.357)">T<tspan class="cls-62" x="3.14" y="0">T</tspan><tspan x="5.898" y="0">AC</tspan></text><text class="cls-64" transform="translate(84.183 119.792)">Promoter</text><line class="cls-4" x1="82.283" y1="170.475" x2="27.584" y2="133.404"/><line class="cls-4" x1="108.874" y1="170.475" x2="163.574" y2="133.404"/><rect class="cls-4" x="27.584" y="96.537" width="135.99" height="36.867"/><polyline class="cls-66" points="178.784 107.848 206.681 107.848 202.438 102.992"/><polyline class="cls-67" points="178.784 126.123 226.145 126.123 226.145 119.478 209.583 119.478 209.583 111.818 178.784 111.818"/><polygon class="cls-60" points="257.986 126.123 227.187 126.123 227.187 118.381 210.625 118.381 210.625 111.818 259.274 111.818 259.274 119.417 275.816 119.417 275.816 126.123 257.986 126.123"/><text class="cls-70" transform="translate(211.516 116.834)">A<tspan class="cls-62" x="3.428" y="0">A</tspan><tspan x="6.475" y="0">TG</tspan></text><text class="cls-64" transform="translate(179.357 116.834)"><tspan xml:space="preserve">GGTCTC  N</tspan></text><text class="cls-65" transform="translate(179.473 124.357)"><tspan xml:space="preserve">CCAGAG  N</tspan></text><polyline class="cls-71" points="307.681 107.848 277.823 107.848 282.065 102.992"/><polyline class="cls-72" points="307.681 111.818 260.32 111.818 260.32 118.463 276.882 118.463 276.882 126.123 307.681 126.123"/><text class="cls-64" transform="translate(278.468 116.834)">N GAGACC</text><text class="cls-68" transform="translate(278.584 124.357)">N CTCTGG</text><text class="cls-64" transform="translate(211.181 124.357)">T<tspan class="cls-62" x="3.14" y="0">T</tspan><tspan x="5.898" y="0">AC</tspan></text><text class="cls-64" transform="translate(261.197 116.834)">GTTG</text><text class="cls-73" transform="translate(260.863 124.357)">CAAC</text><text class="cls-64" transform="translate(238.653 119.792)">GOI</text><line class="cls-4" x1="226.328" y1="170.475" x2="175.486" y2="133.404"/><line class="cls-4" x1="262.562" y1="170.475" x2="311.476" y2="133.404"/><rect class="cls-4" x="175.486" y="96.537" width="135.99" height="36.867"/><circle class="cls-74" cx="489.067" cy="355.435" r="1.728"/><circle class="cls-75" cx="497.952" cy="354.837" r="1.728"/><circle class="cls-76" cx="547.942" cy="354.837" r="1.728"/><circle class="cls-77" cx="558.321" cy="355.721" r="1.728"/></g></svg>